<svg xmlns="http://www.w3.org/2000/svg" viewBox="0 0 36 36">
  <circle fill="#FFD983" cx="18" cy="18" r="18"/>
  <path fill="#FFCC4D" d="M18 29c-6.075 0-11-4.925-11-11S11.925 7 18 7s11 4.925 11 11-4.925 11-11 11zm0-20c-4.971 0-9 4.029-9 9s4.029 9 9 9 9-4.029 9-9-4.029-9-9-9z"/>
  <path fill="#F4900C" d="M17.363 24.625c-.497 0-.967-.193-1.319-.544l-5.357-5.357c-.352-.352-.544-.822-.544-1.319s.193-.967.544-1.319l.277-.277c.176-.176.407-.264.637-.264s.461.088.637.264l3.762 3.762V9.125c0-.497.193-.967.544-1.319s.822-.544 1.319-.544h.207c.497 0 .967.193 1.319.544s.544.822.544 1.319v10.446l3.762-3.762c.176-.176.407-.264.637-.264s.461.088.637.264l.277.277c.352.352.544.822.544 1.319s-.193.967-.544 1.319l-5.357 5.357c-.352.351-.822.544-1.319.544h-.207z"/>
</svg>

